<svg width="94" height="24" viewBox="0 0 94 24" fill="none" xmlns="http://www.w3.org/2000/svg">
<g clip-path="url(#clip0_1204_7)">
<mask id="mask0_1204_7" style="mask-type:luminance" maskUnits="userSpaceOnUse" x="0" y="0" width="94" height="24">
<path d="M0 0H93.7028V24H0V0Z" fill="white"/>
</mask>
<g mask="url(#mask0_1204_7)">
<path fill-rule="evenodd" clip-rule="evenodd" d="M12 24C18.6274 24 24 18.6274 24 12C24 5.37258 18.6274 0 12 0C5.37258 0 0 5.37258 0 12C0 18.6274 5.37258 24 12 24ZM15.288 16.3815C15.702 16.3815 16.038 16.0455 16.038 15.6315V8.44351C16.038 8.02951 15.702 7.69351 15.288 7.69351C14.874 7.69351 14.538 8.02951 14.538 8.44351V15.6315C14.538 16.0455 14.874 16.3815 15.288 16.3815ZM9.54599 14.6385C9.54599 15.0525 9.20999 15.3885 8.79599 15.3885C8.382 15.3885 8.04599 15.0525 8.04599 14.6385V9.43652C8.04599 9.02252 8.382 8.68652 8.79599 8.68652C9.20999 8.68652 9.54599 9.02252 9.54599 9.43652V14.6385ZM5.55001 14.1945C5.96401 14.1945 6.30001 13.8585 6.30001 13.4445V10.632C6.30001 10.218 5.96401 9.88201 5.55001 9.88201C5.13601 9.88201 4.80001 10.218 4.80001 10.632V13.4445C4.80001 13.8585 5.13601 14.1945 5.55001 14.1945ZM12.792 16.725C12.792 17.139 12.456 17.475 12.042 17.475C11.628 17.475 11.292 17.139 11.292 16.725V7.35001C11.292 6.93601 11.628 6.60001 12.042 6.60001C12.456 6.60001 12.792 6.93601 12.792 7.35001V16.725ZM18.534 14.616C18.948 14.616 19.284 14.28 19.284 13.866V10.209C19.284 9.79502 18.948 9.45901 18.534 9.45901C18.12 9.45901 17.784 9.79502 17.784 10.209V13.866C17.784 14.28 18.12 14.616 18.534 14.616Z" fill="#12E29A"/>
<path d="M37.3635 8.54538C37.2691 8.08321 37.1364 7.67485 36.9655 7.32031C36.7945 6.95944 36.5854 6.65554 36.338 6.40863C36.0951 6.15539 35.8162 5.96229 35.5013 5.82933C35.191 5.69638 34.8469 5.6299 34.469 5.6299C33.7628 5.6299 33.1421 5.87682 32.6068 6.37064C32.076 6.86447 31.6622 7.58305 31.3653 8.52639C31.0684 9.46339 30.92 10.6093 30.92 11.9642C30.92 13.319 31.0662 14.4713 31.3586 15.421C31.651 16.3706 32.0648 17.0956 32.6001 17.5957C33.1353 18.0895 33.7673 18.3365 34.496 18.3365C35.1572 18.3365 35.7217 18.1718 36.1895 17.8426C36.6618 17.5071 37.0217 17.0354 37.2691 16.4276C37.521 15.8198 37.6469 15.1013 37.6469 14.2719L38.2407 14.3953H34.6782V11.2994H40.4605V13.7496C40.4605 15.459 40.2041 16.9278 39.6913 18.156C39.1785 19.3779 38.4723 20.3213 37.5727 20.986C36.6731 21.6445 35.643 21.9737 34.4825 21.9737C33.1871 21.9737 32.049 21.5717 31.0684 20.7676C30.0879 19.9572 29.3232 18.8081 28.7744 17.3203C28.2301 15.8262 27.958 14.0535 27.958 12.0022C27.958 10.4257 28.1199 9.02022 28.4438 7.78565C28.7722 6.54475 29.231 5.49378 29.8202 4.63275C30.4095 3.77172 31.0954 3.11645 31.8781 2.66694C32.6608 2.21743 33.5087 1.99268 34.4218 1.99268C35.2045 1.99268 35.9331 2.15412 36.6079 2.47701C37.2826 2.79356 37.8808 3.24307 38.4026 3.82553C38.9289 4.408 39.3585 5.10125 39.6913 5.90531C40.0242 6.70303 40.2378 7.58305 40.3323 8.54538H37.3635Z" fill="#12E29A"/>
<path d="M42.601 21.7078V7.12088H45.3876V9.66599H45.4956C45.6845 8.76064 46.0016 8.07688 46.4469 7.61471C46.8922 7.14621 47.405 6.91195 47.9853 6.91195C48.1292 6.91195 48.2844 6.92462 48.4508 6.94994C48.6172 6.97527 48.7634 7.01009 48.8894 7.0544V10.6441C48.7544 10.5872 48.5678 10.5365 48.3294 10.4922C48.091 10.4479 47.8728 10.4257 47.6749 10.4257C47.2521 10.4257 46.8742 10.5555 46.5414 10.8151C46.213 11.0683 45.9521 11.4229 45.7587 11.8787C45.5698 12.3346 45.4753 12.86 45.4753 13.4552V21.7078H42.601Z" fill="#12E29A"/>
<path d="M54.5756 21.9927C53.5275 21.9927 52.6211 21.6793 51.8564 21.0525C51.0963 20.4194 50.5093 19.5394 50.0954 18.4124C49.6816 17.2792 49.4747 15.9655 49.4747 14.4713C49.4747 12.9645 49.6816 11.6476 50.0954 10.5207C50.5093 9.38742 51.0963 8.5074 51.8564 7.88061C52.6211 7.2475 53.5275 6.93095 54.5756 6.93095C55.6236 6.93095 56.5277 7.2475 57.2879 7.88061C58.0526 8.5074 58.6418 9.38742 59.0557 10.5207C59.4695 11.6476 59.6764 12.9645 59.6764 14.4713C59.6764 15.9655 59.4695 17.2792 59.0557 18.4124C58.6418 19.5394 58.0526 20.4194 57.2879 21.0525C56.5277 21.6793 55.6236 21.9927 54.5756 21.9927ZM54.589 18.8588C55.0658 18.8588 55.4639 18.6688 55.7833 18.289C56.1027 17.9028 56.3433 17.3773 56.5052 16.7125C56.6717 16.0478 56.7549 15.2912 56.7549 14.4428C56.7549 13.5944 56.6717 12.8379 56.5052 12.1731C56.3433 11.5083 56.1027 10.9829 55.7833 10.5967C55.4639 10.2105 55.0658 10.0174 54.589 10.0174C54.1077 10.0174 53.7029 10.2105 53.3746 10.5967C53.0507 10.9829 52.8055 11.5083 52.6391 12.1731C52.4772 12.8379 52.3962 13.5944 52.3962 14.4428C52.3962 15.2912 52.4772 16.0478 52.6391 16.7125C52.8055 17.3773 53.0507 17.9028 53.3746 18.289C53.7029 18.6688 54.1077 18.8588 54.589 18.8588Z" fill="#12E29A"/>
<path d="M66.2279 21.9927C65.1798 21.9927 64.2735 21.6793 63.5088 21.0525C62.7486 20.4194 62.1616 19.5394 61.7478 18.4124C61.334 17.2792 61.127 15.9655 61.127 14.4713C61.127 12.9645 61.334 11.6476 61.7478 10.5207C62.1616 9.38742 62.7486 8.5074 63.5088 7.88061C64.2735 7.2475 65.1798 6.93095 66.2279 6.93095C67.276 6.93095 68.1801 7.2475 68.9403 7.88061C69.7049 8.5074 70.2942 9.38742 70.708 10.5207C71.1218 11.6476 71.3287 12.9645 71.3287 14.4713C71.3287 15.9655 71.1218 17.2792 70.708 18.4124C70.2942 19.5394 69.7049 20.4194 68.9403 21.0525C68.1801 21.6793 67.276 21.9927 66.2279 21.9927ZM66.2414 18.8588C66.7182 18.8588 67.1163 18.6688 67.4356 18.289C67.755 17.9028 67.9956 17.3773 68.1576 16.7125C68.324 16.0478 68.4072 15.2912 68.4072 14.4428C68.4072 13.5944 68.324 12.8379 68.1576 12.1731C67.9956 11.5083 67.755 10.9829 67.4356 10.5967C67.1163 10.2105 66.7182 10.0174 66.2414 10.0174C65.7601 10.0174 65.3553 10.2105 65.0269 10.5967C64.703 10.9829 64.4579 11.5083 64.2915 12.1731C64.1295 12.8379 64.0486 13.5944 64.0486 14.4428C64.0486 15.2912 64.1295 16.0478 64.2915 16.7125C64.4579 17.3773 64.703 17.9028 65.0269 18.289C65.3553 18.6688 65.7601 18.8588 66.2414 18.8588Z" fill="#12E29A"/>
<path d="M82.5257 7.12088L78.9024 21.7078H75.6638L72.0406 7.12088H75.0768L77.2291 17.5577H77.3371L79.4827 7.12088H82.5257Z" fill="#12E29A"/>
<path d="M88.3856 21.9927C87.3195 21.9927 86.4019 21.6888 85.6327 21.081C84.868 20.4669 84.2788 19.5995 83.865 18.4789C83.4511 17.352 83.2442 16.0193 83.2442 14.4808C83.2442 12.9803 83.4511 11.6635 83.865 10.5302C84.2788 9.39692 84.8613 8.51373 85.6125 7.88061C86.3682 7.2475 87.2543 6.93095 88.2709 6.93095C88.9546 6.93095 89.5911 7.08606 90.1803 7.39628C90.7741 7.70018 91.2913 8.15918 91.7322 8.7733C92.1775 9.38742 92.5238 10.1598 92.7712 11.0905C93.0186 12.0148 93.1423 13.0975 93.1423 14.3384V15.4495H84.3912V12.9423H90.4367C90.4367 12.3599 90.3467 11.8439 90.1668 11.3944C89.9869 10.9449 89.7372 10.5935 89.4179 10.3403C89.103 10.0807 88.7364 9.95089 88.3181 9.95089C87.8818 9.95089 87.4949 10.0933 87.1576 10.3782C86.8247 10.6568 86.5638 11.0335 86.3749 11.5083C86.186 11.9768 86.0893 12.4992 86.0848 13.0753V15.459C86.0848 16.1807 86.1792 16.8043 86.3682 17.3298C86.5616 17.8553 86.8337 18.2605 87.1846 18.5454C87.5354 18.8303 87.9515 18.9727 88.4328 18.9727C88.7522 18.9727 89.0445 18.9094 89.3099 18.7828C89.5753 18.6562 89.8025 18.4662 89.9914 18.213C90.1803 17.9598 90.3242 17.6495 90.4232 17.2823L93.0816 17.5292C92.9466 18.4283 92.67 19.2133 92.2517 19.8844C91.8379 20.5492 91.3026 21.0683 90.6459 21.4419C89.9936 21.8091 89.2402 21.9927 88.3856 21.9927Z" fill="#12E29A"/>
</g>
</g>
<defs>
<clipPath id="clip0_1204_7">
<rect width="94" height="24" fill="white"/>
</clipPath>
</defs>
</svg>
